<?xml version="1.0" encoding="UTF-8"?>
<svg width="88px" height="88px" viewBox="0 0 88 88" version="1.1" xmlns="http://www.w3.org/2000/svg" xmlns:xlink="http://www.w3.org/1999/xlink">
    <!-- Generator: Sketch 52.6 (67491) - http://www.bohemiancoding.com/sketch -->
    <title>Icons/at3</title>
    <desc>Created with Sketch.</desc>
    <g id="Icons/at3" stroke="none" stroke-width="1" fill="none" fill-rule="evenodd">
        <circle id="Oval" fill="#7AA52B" opacity="0.4" cx="48.5" cy="43.5" r="37.5"></circle>
        <path d="M79.1910938,64.6592565 C77.5729688,67.0037082 75.6529688,69.23704 73.475625,71.2962965 C71.3020313,73.3555576 68.8682813,75.1703671 66.23625,76.7 C63.6145313,78.2222212 60.7846875,79.4296329 57.8334375,80.2851859 C54.8925,81.1333327 51.7640625,81.5666696 48.541875,81.5666696 C43.6907813,81.5666696 39.024375,80.7703694 34.6701563,79.2074071 C30.33,77.6481506 26.461875,75.3 23.176875,72.2185224 C19.895625,69.1481459 17.2570313,65.2740753 15.33,60.7074071 C13.40625,56.1444424 12.4340625,50.7666682 12.4340625,44.7296282 C12.4340625,39.7037035 13.3542187,34.9481412 15.1701563,30.5962824 C16.989375,26.2444235 19.545,22.3815059 22.7639063,19.1259294 C25.9860938,15.8629647 29.8401562,13.2592471 34.2220313,11.3777882 C38.604375,9.5 43.4235938,8.54814118 48.541875,8.54814118 C53.0971875,8.54814118 57.4026563,9.28145882 61.333125,10.7370353 C65.25,12.1926118 68.67,14.2481412 71.4928125,16.8629647 C74.3090625,19.4666824 76.5520313,22.6481412 78.1560938,26.3111059 C79.7535938,29.9740706 80.5659375,34.0481412 80.5659375,38.4185224 C80.5659375,42.2963012 79.8960938,45.9592612 78.5765625,49.3037035 C77.25,52.6629647 75.5657813,55.6037082 73.5764063,58.0370353 C71.5973438,60.4666682 69.3923438,62.4148188 67.0345313,63.8148141 C64.708125,65.2037082 62.4651563,65.9037082 60.3609375,65.9037082 C59.083125,65.9037082 58.1353125,65.6444424 57.541875,65.1296329 C56.95125,64.6222212 56.6039063,63.9481506 56.4825,63.0629647 C56.3540625,62.1111106 56.4548438,60.9592612 56.791875,59.6444424 C57.13875,58.2777788 57.6351563,56.7888894 58.2707813,55.2074071 L70.5590625,22.9444235 L66.9060938,22.9444235 L64.6457813,29.2370353 C63.5657813,26.8148235 61.8023438,24.8629647 59.38875,23.4148235 C56.58,21.7296471 53.364375,20.8777882 49.83,20.8777882 C45.9342188,20.8777882 42.3196875,21.9185412 39.0796875,23.9666824 C35.8715625,25.9962824 33.0970313,28.6333176 30.8367188,31.8073882 C28.5867188,34.9666824 26.8195313,38.4518541 25.5867188,42.1629647 C24.3473438,45.8777788 23.7220313,49.5222212 23.7220313,52.9925929 C23.7220313,55.2518541 24.118125,57.4111106 24.8990625,59.4037082 C25.6804688,61.3962965 26.7534375,63.1518541 28.0935938,64.6185224 C29.4407813,66.0925976 31.0626563,67.2777788 32.9203125,68.1407435 C36.9965625,70.0407435 41.9479688,69.7555576 46.8609375,68.0555576 C49.145625,67.2629647 51.2221875,65.7851859 53.0592188,63.6481459 C53.1492188,65.0962965 53.7014063,66.33704 54.7082813,67.3592612 C56.0798438,68.7444424 57.9098438,69.4518541 60.1490625,69.4518541 C62.8228125,69.4518541 65.6217188,68.6148188 68.458125,66.9740753 C71.270625,65.3481459 73.8609375,63.1 76.1596875,60.2962965 C78.448125,57.5037082 80.3470313,54.2 81.8020313,50.4851859 C83.2603125,46.7555529 84,42.6963012 84,38.4185224 C84,33.3370353 83.0554688,28.6629647 81.1978125,24.5333176 C79.3401563,20.4 76.7709375,16.8481412 73.5623438,13.9703529 C70.36125,11.1 66.5657813,8.86296471 62.2846875,7.32221176 C58.0139063,5.78150588 53.38875,5 48.541875,5 C43.1840625,5 38.0451563,6.00371765 33.2671875,7.98145882 C28.4859375,9.96296471 24.2395313,12.7518588 20.6526563,16.2777882 C17.0592188,19.8 14.1909375,24.0259294 12.1214062,28.8370353 C10.0485938,33.6555765 9,39.0037035 9,44.7296282 C9,51.6851859 10.1596875,57.7851859 12.4476563,62.8592612 C14.7360938,67.9333318 17.7778125,72.1629647 21.4828125,75.4370353 C25.1840625,78.7037082 29.4515625,81.1444433 34.17,82.6851854 C38.8645313,84.2222221 43.7015625,85 48.541875,85 C51.8751563,85 55.239375,84.5333326 58.5379688,83.6222221 C61.82625,82.7074061 65.0001563,81.3851854 67.96875,79.7 C70.9410938,78.0111106 73.7292188,75.9333318 76.26375,73.5148188 C78.8053125,71.0925976 80.975625,68.3703671 82.7221875,65.4296329 L83.34375,64.3814824 L79.381875,64.3814824 C79.381875,64.3814824 79.1910938,64.6592565 79.1910938,64.6592565 Z" id="Fill-28-Copy" fill="#FFFFFF"></path>
        <path d="M47.249842,59.4411259 C45.9669777,61.0778724 44.6147567,62.3820898 43.2342268,63.3131525 C41.8640767,64.2442106 40.4207954,64.887083 38.9562825,65.2306909 C35.5488364,66.0250475 32.3263417,65.9363746 29.6596448,64.7762431 C28.1569148,64.1259816 26.8462135,63.2097016 25.7629268,62.0532692 C24.672563,60.8968275 23.8129165,59.5260996 23.1976701,57.9817252 C22.5824236,56.4447398 22.2714977,54.7267095 22.2714977,52.8756769 C22.2714977,49.9310139 22.823521,46.7572867 23.9138849,43.4468487 C25.0047205,40.1327209 26.5560474,37.0144301 28.5272894,34.1879678 C30.4881515,31.3800016 32.8854422,29.0080529 35.656882,27.1422094 C38.3863303,25.3059877 41.4167964,24.3786054 44.6671281,24.3786054 C45.9882094,24.3786054 47.382422,24.5374645 48.8082461,24.8515211 C50.2170849,25.1618691 51.5763832,25.6865173 52.8521703,26.4106782 C54.1067257,27.127422 55.2287011,28.076962 56.1827106,29.2408021 C57.0843485,30.3381224 57.783578,31.742082 58.2619981,33.4194916 L50.667668,53.160168 C49.6858215,55.6910275 48.536009,57.8043795 47.249842,59.4411259 Z M74.6500114,64.513919 C73.0213069,66.8526594 71.0887537,69.0805504 68.8971742,71.1347903 C66.7093693,73.1890349 64.2597071,74.9994232 61.6104674,76.5253297 C58.9716075,78.0438426 56.1232619,79.2483129 53.1527163,80.1017816 C50.1925506,80.9478623 47.043659,81.3801435 43.8004044,81.3801435 C38.9175937,81.3801435 34.2206779,80.5857832 29.8379908,79.0266284 C25.4694581,77.4711705 21.5760428,75.1287403 18.2695651,72.0547695 C14.9668619,68.9918729 12.3110167,65.12724 10.3713863,60.5716968 C8.43505858,56.019848 7.45651481,50.6551748 7.45651481,44.6328418 C7.45651481,39.6191609 8.38268715,34.8751837 10.2104975,30.5339266 C12.0416105,26.1926694 14.6139445,22.3391623 17.8538963,19.0915169 C21.0971508,15.8365011 24.9764117,13.2391265 29.3869359,11.3622511 C33.7979319,9.48903743 38.6486593,8.53949746 43.8004044,8.53949746 C48.3855001,8.53949746 52.7191185,9.27102865 56.6752851,10.7230591 C60.6177691,12.1750897 64.0601295,14.2256115 66.9013979,16.834065 C69.7360609,19.4314397 71.9936944,22.6051481 73.6082445,26.2591893 C75.2161891,29.9132306 76.033844,33.9773762 76.033844,38.3371106 C76.033844,42.2054427 75.3596208,45.8594792 74.0314623,49.1957741 C72.6962266,52.5468517 71.0009962,55.4804312 68.9986144,57.9078304 C67.0066126,60.3315444 64.787196,62.2749491 62.4139679,63.6715338 C60.0723513,65.0570444 57.8147178,65.7553391 55.6967414,65.7553391 C54.4105744,65.7553391 53.456565,65.4967048 52.8592475,64.9831495 C52.2647609,64.4769739 51.9151462,63.8045454 51.7929462,62.921516 C51.663669,61.9719807 51.7651091,60.8229373 52.1043439,59.5113216 C52.4534868,58.1479874 52.9531386,56.6627251 53.5929194,55.0850955 L65.9615429,22.9007086 L62.2846906,22.9007086 L60.0095999,29.1779908 C58.9225388,26.7616799 57.1475717,24.814576 54.7181976,23.3699627 C51.8910837,21.6888915 48.6544345,20.8391079 45.0969514,20.8391079 C41.175699,20.8391079 37.5375356,21.8773255 34.276352,23.9204771 C31.0472519,25.9451328 28.2545805,28.5757439 25.9794898,31.742082 C23.714779,34.8936797 21.9360374,38.3703612 20.6951647,42.072431 C19.4476865,45.7781954 18.8182856,49.4137594 18.8182856,52.8756769 C18.8182856,55.1294342 19.2169691,57.2834305 20.0030124,59.2711739 C20.7895276,61.258908 21.8695116,63.0101888 23.2184299,64.4732841 C24.5744255,65.9437683 26.2069045,67.1260623 28.0767063,67.9869247 C32.1796073,69.882296 37.1633865,69.5978049 42.1084768,67.9019463 C44.4081018,67.1112842 46.4982411,65.6371055 48.3472831,63.5052716 C48.4378716,64.9498943 48.9936693,66.1876152 50.0071274,67.2073461 C51.3876573,68.5891528 53.2296221,69.2948412 55.4834811,69.2948412 C58.1747124,69.2948412 60.9919182,68.4598451 63.8468692,66.8230986 C66.6777577,65.2011302 69.285006,62.958461 71.5987855,60.1615877 C73.902185,57.3758026 75.8135066,54.0801426 77.2780195,50.3743782 C78.7458352,46.6538311 79.4903589,42.6044682 79.4903589,38.3371106 C79.4903589,33.2680027 78.5396521,28.6053187 76.6698503,24.485732 C74.8000485,20.3624837 72.2140319,16.8192776 68.98446,13.9485 C65.7624371,11.0851396 61.9421531,8.85355403 57.6330691,7.31655456 C53.334365,5.77960204 48.6789689,5 43.8004044,5 C38.4075619,5 33.2350569,6.00127246 28.4258492,7.97419561 C23.6133389,9.9508743 19.3391691,12.7329743 15.7288427,16.2503141 C12.1119109,19.7639453 9.22487646,23.9795798 7.14181437,28.7789653 C5.05544958,33.5857679 4,38.9208662 4,44.6328418 C4,51.5714549 5.16726967,57.6565945 7.47019743,62.7183087 C9.77359701,67.7800182 12.8352029,71.9993472 16.5644266,75.2654418 C20.2898758,78.5241567 24.5852772,80.9589458 29.3345644,82.4959345 C34.0597891,84.0292268 38.9284454,84.8051099 43.8004044,84.8051099 C47.1554791,84.8051099 50.5416935,84.3395793 53.8618538,83.4306884 C57.1716343,82.518101 60.3662919,81.1991014 63.3542946,79.5180213 C66.3460719,77.8332463 69.152426,75.7605292 71.7035283,73.3479081 C74.2617079,70.9315877 76.4462101,68.2159888 78.2041919,65.2824187 L78.8298182,64.2368215 L74.84204,64.2368215 C74.84204,64.2368215 74.6500114,64.513919 74.6500114,64.513919 Z" id="Fill-28" fill="#00338D"></path>
    </g>
</svg>