<?xml version="1.0" encoding="UTF-8"?>
<svg width="88px" height="88px" viewBox="0 0 88 88" version="1.1" xmlns="http://www.w3.org/2000/svg" xmlns:xlink="http://www.w3.org/1999/xlink">
    <!-- Generator: Sketch 52.6 (67491) - http://www.bohemiancoding.com/sketch -->
    <title>Icons/search3 Copy</title>
    <desc>Created with Sketch.</desc>
    <defs>
        <path d="M64.4713685,77.1805588 C62.4638118,77.1805588 60.5056068,76.7083235 58.6580024,75.7777941 C58.4852715,75.6909706 58.3054903,75.6250147 58.1261497,75.5729118 C39.9096434,65.6875147 24.8168355,49.6354412 15.52109,30.2604265 C15.4686538,30.0625147 15.403439,29.8645588 15.3188361,29.6736176 C14.4441653,27.7048676 14,25.6249853 14,23.4895588 C14,15.2222206 20.8056878,9 25.2151742,9 C25.7928535,9 26.1748886,9.31248529 26.3476195,9.49998529 C26.3868365,9.54511765 26.4617453,9.63194118 26.5666177,9.81251471 C26.6221384,9.90970588 26.683828,10.0034559 26.7490427,10.0937647 L37.3019348,24.5242941 C37.3834532,24.6354265 37.4715812,24.7395882 37.5663189,24.8402647 C37.7390498,25.0277647 38.0329568,25.4340441 38.0329568,26.0451618 C38.0329568,26.3472353 37.9545229,26.6319265 37.8011801,26.8923529 L34.230232,30.6631765 C34.2139283,30.6805588 34.1976246,30.6979412 34.1813209,30.7152794 C32.8889232,32.0103971 32.1512915,33.8055441 32.1512915,35.6875147 C32.1512915,37.4479412 32.7941856,39.1249853 33.9103272,40.3819412 C33.9495442,40.4513824 33.9918456,40.5173824 34.0376722,40.5833382 C37.9743517,46.3715294 42.8147842,51.4999853 48.4219307,55.8298676 C48.4646728,55.8611029 48.5104994,55.8923824 48.5528009,55.9236176 C49.7376823,57.1319559 51.3270715,57.8298529 52.9918102,57.8298529 C54.6631584,57.8298529 56.2754609,57.1180588 57.4731209,55.8645882 C57.5352512,55.8090441 57.5938564,55.7500147 57.6529021,55.6840147 L61.2432385,51.8402647 C61.4944034,51.6701471 61.7623126,51.5868088 62.0430004,51.5868088 C62.6206797,51.5868088 63.0022741,51.8992941 63.1754457,52.0867941 C63.2701833,52.1875147 63.3715306,52.2812647 63.4759623,52.3680441 L77.0410707,63.5902941 C77.1291987,63.6631765 77.2204113,63.7291765 77.3120644,63.7916471 C77.4817109,63.9062647 77.5601449,63.9791471 77.5958367,64.0173529 C77.7720928,64.2048529 78.0659998,64.6076471 78.0659998,65.2222059 C78.0659998,65.3368235 78.0726094,65.4513971 78.085388,65.5659706 C77.8342231,70.2604412 72.0732932,77.1805588 64.4713685,77.1805588" id="path-1"></path>
        <path d="M60.6765853,78.5902794 C58.6690286,78.5902794 56.7108235,78.1180441 54.8632192,77.1875147 C54.6904882,77.1006912 54.5107071,77.0347353 54.3313665,76.9826324 C36.1148602,67.0972353 21.0220523,51.0451618 11.7263067,31.6701471 C11.6738705,31.4722353 11.6086558,31.2742794 11.5240529,31.0833382 C10.6493821,29.1145882 10.2052168,27.0347059 10.2052168,24.8992794 C10.2052168,16.6319412 17.0109046,10.4097206 21.420391,10.4097206 C21.9980703,10.4097206 22.3801053,10.7222059 22.5528363,10.9097059 C22.5920533,10.9548382 22.6669621,11.0416618 22.7718345,11.2222353 C22.8273551,11.3194265 22.8890448,11.4131765 22.9542595,11.5034853 L33.5071515,25.9340147 C33.58867,26.0451471 33.676798,26.1493088 33.7715357,26.2499853 C33.9442666,26.4374853 34.2381736,26.8437647 34.2381736,27.4548824 C34.2381736,27.7569559 34.1597397,28.0416471 34.0063969,28.3020735 L30.4354487,32.0728971 C30.4191451,32.0902794 30.4028414,32.1076618 30.3865377,32.125 C29.09414,33.4201176 28.3565083,35.2152647 28.3565083,37.0972353 C28.3565083,38.8576618 28.9994024,40.5347059 30.115544,41.7916618 C30.1547609,41.8611029 30.1970624,41.9271029 30.242889,41.9930588 C34.1795685,47.78125 39.020001,52.9097059 44.6271475,57.2395882 C44.6698896,57.2708235 44.7157162,57.3021029 44.7580176,57.3333382 C45.9428991,58.5416765 47.5322883,59.2395735 49.1970269,59.2395735 C50.8683752,59.2395735 52.4806777,58.5277794 53.6783377,57.2743088 C53.740468,57.2187647 53.7990731,57.1597353 53.8581189,57.0937353 L57.4484552,53.2499853 C57.6996201,53.0798676 57.9675294,52.9965294 58.2482172,52.9965294 C58.8258965,52.9965294 59.2074909,53.3090147 59.3806625,53.4965147 C59.4754001,53.5972353 59.5767474,53.6909853 59.6811791,53.7777647 L73.2462875,65.0000147 C73.3344155,65.0728971 73.425628,65.1388971 73.5172812,65.2013676 C73.6869277,65.3159853 73.7653616,65.3888676 73.8010535,65.4270735 C73.9773096,65.6145735 74.2712166,66.0173676 74.2712166,66.6319265 C74.2712166,66.7465441 74.2778262,66.8611176 74.2906047,66.9756912 C74.0394398,71.6701618 68.2785099,78.5902794 60.6765853,78.5902794 M77.5024311,66.6319265 L77.4764333,66.6319265 C77.4764333,65.2222353 76.937971,63.9409706 76.0694692,63.0173676 C75.8116947,62.7430441 75.5243973,62.5138971 75.2141866,62.3090147 L61.6490782,51.0868088 C60.7774919,50.1597206 59.5767474,49.5868088 58.2482172,49.5868088 C57.1611578,49.5868088 56.1723612,49.9861176 55.3695148,50.6353971 L51.5830936,54.6944412 L51.5733995,54.6840294 C50.9891106,55.3819706 50.1435221,55.8298529 49.1970269,55.8298529 C48.1099676,55.8298529 47.1568628,55.2534559 46.5760991,54.3784706 C46.5567109,54.4097059 46.5302725,54.4409853 46.5073592,54.4791471 C41.272113,50.4374853 36.6308499,45.5694559 32.8378191,39.9930294 C32.8739516,39.9687647 32.906559,39.9374853 32.9457759,39.9131765 C32.1098815,39.2882059 31.5617251,38.2638824 31.5617251,37.0972353 C31.5617251,36.0520882 32.0089749,35.1284853 32.6972549,34.4999853 L32.6941704,34.4930588 L36.4607628,30.5173529 C37.0710494,29.6666765 37.4433904,28.6111176 37.4433904,27.4548824 C37.4433904,26.0451471 36.9049281,24.7638824 36.0364263,23.8402794 L25.4839749,9.40626471 C25.2914151,9.07988235 25.0759421,8.77083824 24.8181675,8.5 C23.9501064,7.57291176 22.7489212,7 21.420391,7 C15.0130419,7 7,15.0138824 7,24.8992794 C7,27.6354118 7.5975081,30.2222059 8.62860616,32.5416471 L8.57661062,32.6007206 C18.2151742,53.0242794 34.2381736,70.0694412 53.4399514,80.3229118 L53.4923876,80.2673676 C55.6726752,81.3680588 58.1045685,82 60.6765853,82 C69.9692464,82 77.5024311,73.4757206 77.5024311,66.6597206 C77.5024311,66.6493088 77.5024311,66.6423824 77.5024311,66.6319265" id="path-3"></path>
    </defs>
    <g id="Icons/search3-Copy" stroke="none" stroke-width="1" fill="none" fill-rule="evenodd">
        <mask id="mask-2" fill="white">
            <use xlink:href="#path-1"></use>
        </mask>
        <use id="Mask-Copy" fill="#0097A9" opacity="0.4" xlink:href="#path-1"></use>
        <mask id="mask-4" fill="white">
            <use xlink:href="#path-3"></use>
        </mask>
        <use id="Mask" fill="#00338D" xlink:href="#path-3"></use>
    </g>
</svg>