<?xml version="1.0" encoding="UTF-8"?>
<svg width="88px" height="88px" viewBox="0 0 88 88" version="1.1" xmlns="http://www.w3.org/2000/svg" xmlns:xlink="http://www.w3.org/1999/xlink">
    <!-- Generator: Sketch 52.6 (67491) - http://www.bohemiancoding.com/sketch -->
    <title>Icons/insurance</title>
    <desc>Created with Sketch.</desc>
    <g id="Icons/insurance" stroke="none" stroke-width="1" fill="none" fill-rule="evenodd">
        <path d="M63.25,44.650654 L50.6506064,44.650654 L50.6506064,57.2500217 L44.3493936,57.2500217 L44.3493936,44.650654 L31.75,44.650654 L31.75,38.349346 L44.3493936,38.349346 L44.3493936,25.7499783 L50.6506064,25.7499783 L50.6506064,38.349346 L63.25,38.349346 C63.25,38.349346 63.25,44.650654 63.25,44.650654 Z M63.25,35.1987353 L53.8012128,35.1987353 L53.8012128,25.7499783 C53.8012128,24.0110353 52.3896337,22.5993676 50.6506064,22.5993676 L44.3493936,22.5993676 C42.6103663,22.5993676 41.1987872,24.0110353 41.1987872,25.7499783 L41.1987872,35.1987353 L31.75,35.1987353 C30.0109727,35.1987353 28.5993936,36.6104029 28.5993936,38.349346 L28.5993936,44.650654 C28.5993936,46.3895971 30.0109727,47.8013081 31.75,47.8013081 L41.1987872,47.8013081 L41.1987872,57.2500217 C41.1987872,58.9889647 42.6103663,60.4006324 44.3493936,60.4006324 L50.6506064,60.4006324 C52.3896337,60.4006324 53.8012128,58.9889647 53.8012128,57.2500217 L53.8012128,47.8013081 L63.25,47.8013081 C64.9890273,47.8013081 66.4006064,46.3895971 66.4006064,44.650654 L66.4006064,38.349346 C66.4006064,36.6104029 64.9890273,35.1987353 63.25,35.1987353 Z M79,69.8493893 C79,71.5883324 77.5884209,73 75.8493936,73 L19.1506064,73 C17.4115791,73 16,71.5883324 16,69.8493893 L16,13.1506107 C16,11.411711 17.4115791,10 19.1506064,10 L75.8493936,10 C77.5884209,10 79,11.411711 79,13.1506107 C79,13.1506107 79,69.8493893 79,69.8493893 Z" id="Fill-131-Copy" fill="#E0C614" opacity="0.4"></path>
        <path d="M60.1815438,47.6369556 L47.6369125,47.6369556 L47.6369125,60.1815437 L41.3630875,60.1815437 L41.3630875,47.6369556 L28.8184562,47.6369556 L28.8184562,41.3630444 L41.3630875,41.3630444 L41.3630875,28.8184562 L47.6369125,28.8184562 L47.6369125,41.3630444 L60.1815438,41.3630444 C60.1815438,41.3630444 60.1815438,47.6369556 60.1815438,47.6369556 Z M60.1815438,38.2261319 L50.773825,38.2261319 L50.773825,28.8184562 C50.773825,27.0870737 49.3683813,25.6815437 47.6369125,25.6815437 L41.3630875,25.6815437 C39.6316188,25.6815437 38.226175,27.0870737 38.226175,28.8184562 L38.226175,38.2261319 L28.8184562,38.2261319 C27.0869875,38.2261319 25.6815438,39.6316619 25.6815438,41.3630444 L25.6815438,47.6369556 C25.6815438,49.3683381 27.0869875,50.7739113 28.8184562,50.7739113 L38.226175,50.7739113 L38.226175,60.1815438 C38.226175,61.9129263 39.6316188,63.3184563 41.3630875,63.3184563 L47.6369125,63.3184563 C49.3683813,63.3184563 50.773825,61.9129263 50.773825,60.1815438 L50.773825,50.7739113 L60.1815438,50.7739113 C61.9130125,50.7739113 63.3184562,49.3683381 63.3184562,47.6369556 L63.3184562,41.3630444 C63.3184562,39.6316619 61.9130125,38.2261319 60.1815438,38.2261319 Z M75.8630875,72.7261319 C75.8630875,74.4575144 74.4576438,75.8630444 72.726175,75.8630444 L16.273825,75.8630444 C14.5423563,75.8630444 13.1369125,74.4575144 13.1369125,72.7261319 L13.1369125,16.2738681 C13.1369125,14.5425287 14.5423563,13.1369556 16.273825,13.1369556 L72.726175,13.1369556 C74.4576438,13.1369556 75.8630875,14.5425287 75.8630875,16.2738681 C75.8630875,16.2738681 75.8630875,72.7261319 75.8630875,72.7261319 Z M72.726175,10 L16.273825,10 C12.8078688,10 10,12.8079119 10,16.2738681 L10,72.7261319 C10,76.1920881 12.8078688,79 16.273825,79 L72.726175,79 C76.1921313,79 79,76.1920881 79,72.7261319 L79,16.2738681 C79,12.8079119 76.1921313,10 72.726175,10 Z" id="Fill-131" fill="#00338D"></path>
    </g>
</svg>