<?xml version="1.0" encoding="UTF-8"?>
<svg width="88px" height="88px" viewBox="0 0 88 88" version="1.1" xmlns="http://www.w3.org/2000/svg" xmlns:xlink="http://www.w3.org/1999/xlink">
    <!-- Generator: Sketch 52.6 (67491) - http://www.bohemiancoding.com/sketch -->
    <title>Icons/file3</title>
    <desc>Created with Sketch.</desc>
    <defs>
        <path d="M56.1262713,26.4547059 L56.1262713,9.40985294 L57.839921,9.40985294 L73.2623278,26.4547059 C73.2623278,26.4547059 56.1262713,26.4547059 56.1262713,26.4547059 Z M59.5535707,6 L21.8545989,6 C18.0703809,6 15,9.05205882 15,12.8192647 L15,74.1807353 C15,77.9479412 18.0703809,81 21.8545989,81 L69.8350284,81 C73.6192464,81 76.6896272,77.9479412 76.6896272,74.1807353 L76.6896272,24.75 C76.6896272,24.75 59.5535707,6 59.5535707,6 Z M28.7087571,36.6807353 C28.7087571,37.6248529 29.4741491,38.3854412 30.4224068,38.3854412 L61.2672204,38.3854412 C62.2154781,38.3854412 62.9808701,37.6248529 62.9808701,36.6807353 C62.9808701,35.7432353 62.2154781,34.9755882 61.2672204,34.9755882 L30.4224068,34.9755882 C29.4741491,34.9755882 28.7087571,35.7432353 28.7087571,36.6807353 Z M61.2672204,48.6145588 L30.4224068,48.6145588 C29.4741491,48.6145588 28.7087571,49.3786765 28.7087571,50.3192647 C28.7087571,51.2602941 29.4741491,52.0244118 30.4224068,52.0244118 L61.2672204,52.0244118 C62.2154781,52.0244118 62.9808701,51.2602941 62.9808701,50.3192647 C62.9808701,49.3786765 62.2154781,48.6145588 61.2672204,48.6145588 Z M30.4224068,24.75 L38.9902147,24.75 C39.9384724,24.75 40.7038645,23.9894118 40.7038645,23.0452941 C40.7038645,22.1042647 39.9384724,21.3401471 38.9902147,21.3401471 L30.4224068,21.3401471 C29.4741491,21.3401471 28.7087571,22.1042647 28.7087571,23.0452941 C28.7087571,23.9894118 29.4741491,24.75 30.4224068,24.75 Z M50.9857628,62.25 L30.4224068,62.25 C29.4741491,62.25 28.7087571,63.0136765 28.7087571,63.9547059 C28.7087571,64.8957353 29.4741491,65.6598529 30.4224068,65.6598529 L50.9857628,65.6598529 C51.9340205,65.6598529 52.6994125,64.8957353 52.6994125,63.9547059 C52.6994125,63.0136765 51.9340205,62.25 50.9857628,62.25 Z" id="path-1"></path>
        <path d="M50.1262713,28.4547059 L50.1262713,11.4098529 L51.839921,11.4098529 L67.2623278,28.4547059 C67.2623278,28.4547059 50.1262713,28.4547059 50.1262713,28.4547059 Z M67.2623278,76.1807353 C67.2623278,78.0658824 65.7258154,79.5901471 63.8350284,79.5901471 L15.8545989,79.5901471 C13.9607273,79.5901471 12.4272994,78.0658824 12.4272994,76.1807353 L12.4272994,14.8192647 C12.4272994,12.9376471 13.9607273,11.4098529 15.8545989,11.4098529 L46.6994125,11.4098529 L46.6994125,28.4547059 C46.6994125,30.3367647 48.2359248,31.8645588 50.1262713,31.8645588 L67.2623278,31.8645588 C67.2623278,31.8645588 67.2623278,76.1807353 67.2623278,76.1807353 Z M53.5535707,8 L15.8545989,8 C12.0703809,8 9,11.0520588 9,14.8192647 L9,76.1807353 C9,79.9479412 12.0703809,83 15.8545989,83 L63.8350284,83 C67.6192464,83 70.6896272,79.9479412 70.6896272,76.1807353 L70.6896272,26.75 C70.6896272,26.75 53.5535707,8 53.5535707,8 Z M22.7087571,38.6807353 C22.7087571,39.6248529 23.4741491,40.3854412 24.4224068,40.3854412 L55.2672204,40.3854412 C56.2154781,40.3854412 56.9808701,39.6248529 56.9808701,38.6807353 C56.9808701,37.7432353 56.2154781,36.9755882 55.2672204,36.9755882 L24.4224068,36.9755882 C23.4741491,36.9755882 22.7087571,37.7432353 22.7087571,38.6807353 Z M55.2672204,50.6145588 L24.4224068,50.6145588 C23.4741491,50.6145588 22.7087571,51.3786765 22.7087571,52.3192647 C22.7087571,53.2602941 23.4741491,54.0244118 24.4224068,54.0244118 L55.2672204,54.0244118 C56.2154781,54.0244118 56.9808701,53.2602941 56.9808701,52.3192647 C56.9808701,51.3786765 56.2154781,50.6145588 55.2672204,50.6145588 Z M24.4224068,26.75 L32.9902147,26.75 C33.9384724,26.75 34.7038645,25.9894118 34.7038645,25.0452941 C34.7038645,24.1042647 33.9384724,23.3401471 32.9902147,23.3401471 L24.4224068,23.3401471 C23.4741491,23.3401471 22.7087571,24.1042647 22.7087571,25.0452941 C22.7087571,25.9894118 23.4741491,26.75 24.4224068,26.75 Z M44.9857628,64.25 L24.4224068,64.25 C23.4741491,64.25 22.7087571,65.0136765 22.7087571,65.9547059 C22.7087571,66.8957353 23.4741491,67.6598529 24.4224068,67.6598529 L44.9857628,67.6598529 C45.9340205,67.6598529 46.6994125,66.8957353 46.6994125,65.9547059 C46.6994125,65.0136765 45.9340205,64.25 44.9857628,64.25 Z" id="path-3"></path>
    </defs>
    <g id="Icons/file3" stroke="none" stroke-width="1" fill="none" fill-rule="evenodd">
        <mask id="mask-2" fill="white">
            <use xlink:href="#path-1"></use>
        </mask>
        <use id="Mask-Copy-2" fill="#E70033" opacity="0.4" xlink:href="#path-1"></use>
        <mask id="mask-4" fill="white">
            <use xlink:href="#path-3"></use>
        </mask>
        <use id="Mask-Copy" fill="#00338D" xlink:href="#path-3"></use>
    </g>
</svg>