<?xml version="1.0" encoding="UTF-8"?>
<svg width="88px" height="88px" viewBox="0 0 88 88" version="1.1" xmlns="http://www.w3.org/2000/svg" xmlns:xlink="http://www.w3.org/1999/xlink">
    <!-- Generator: Sketch 52.6 (67491) - http://www.bohemiancoding.com/sketch -->
    <title>Icons/Location3</title>
    <desc>Created with Sketch.</desc>
    <defs>
        <path d="M32.0623861,3 C19.3248306,3 9,14.0629235 9,27.7076353 C9,47.7853353 32.0623861,67.1751118 32.0623861,67.1751118 C32.0623861,67.1751118 55.1247234,47.7853353 55.1247234,27.7076353 C55.1247234,14.0629235 44.7999416,3 32.0623861,3 M71.8799283,78.3303118 C71.0466799,78.945 70.0649367,79.5020765 68.9708717,79.9785941 C68.0651796,80.3784588 67.6340765,81.4808941 68.007215,82.4456471 C68.2861669,83.1755588 68.9491288,83.6139941 69.644705,83.6139941 C69.8692998,83.6139941 70.1011585,83.5676118 70.3185383,83.4714294 C71.6517259,82.8875 72.858064,82.1995765 73.9014282,81.4310941 C74.7092774,80.8354471 74.9085219,79.6597765 74.3506179,78.8029235 C73.792714,77.9499765 72.68417,77.7346647 71.8799283,78.3303118 M67.8659352,53.1149118 C67.3587321,52.1467412 67.0508221,51.1439059 66.9457642,50.1293529 C66.8407063,49.0918529 65.9893714,48.3463176 64.9931004,48.4542176 C64.0185723,48.5694412 63.3121247,49.4951353 63.4208389,50.5326353 C63.5729901,52.0583706 64.0294437,53.5455353 64.7721131,54.9594647 C65.0945508,55.5741529 65.699548,55.9242176 66.3190241,55.9242176 C66.6160627,55.9242176 66.9094936,55.8470765 67.1848868,55.6820529 C68.0398292,55.1747765 68.3477392,54.0259588 67.8659352,53.1149118 M75.1114226,61.6150882 C74.3578818,60.5658706 73.4956755,59.5166529 72.5356751,58.4830588 C71.8509703,57.7414294 70.7278986,57.7341059 70.0251073,58.4640176 C69.3295312,59.1939294 69.3222673,60.3891294 70.0105796,61.1346647 C70.8619145,62.0530353 71.6299831,62.9904471 72.2929449,63.9088176 C72.6443406,64.3931471 73.1696302,64.6465412 73.7021838,64.6465412 C74.0789298,64.6465412 74.4556759,64.5235059 74.7781135,64.2583941 C75.5606123,63.6246647 75.7055484,62.4411824 75.1114226,61.6150882 M86.8020063,25.7791059 C86.3527679,24.8529235 85.2840533,24.4877235 84.4146318,24.9681471 C84.4146318,24.9681471 83.8096346,25.2986824 82.7988847,25.9094647 C81.9475498,26.4245529 81.6504625,27.5772765 82.1359228,28.4839294 C82.461968,29.0952 83.0633089,29.4369647 83.6792263,29.4369647 C83.9798723,29.4369647 84.2805672,29.3564059 84.5559116,29.1874765 C85.4688675,28.6377235 86.0231151,28.3301353 86.0375941,28.3228118 C86.9106718,27.8462941 87.251196,26.7087059 86.8020063,25.7791059 M76.5967614,67.8859824 C75.6403199,68.0973882 75.0244512,69.0963176 75.2237444,70.1186824 C75.339625,70.7255588 75.4048536,71.3251118 75.4048536,71.8939059 C75.4048536,72.3587059 75.3613679,72.8235059 75.2816604,73.2692647 C75.0932873,74.2955353 75.7236349,75.2832353 76.6836841,75.4790176 C76.7996135,75.5058706 76.9119353,75.5136824 77.0242083,75.5136824 C77.8574567,75.5136824 78.6001261,74.8872765 78.7631487,73.9840412 C78.8899495,73.3039294 78.9515217,72.6047765 78.9515217,71.8939059 C78.9515217,71.0717176 78.8645503,70.2148647 78.6979201,69.3502 C78.4950681,68.3278353 77.5531543,67.6784824 76.5967614,67.8859824 M76.3467674,30.3055353 C75.3577603,31.0623 74.3361389,31.8883941 73.325389,32.7608706 C72.564633,33.4219412 72.4523112,34.6093294 73.0717874,35.4158941 C73.4232318,35.8772765 73.9339937,36.1116294 74.4484607,36.1116294 C74.8396858,36.1116294 75.2382234,35.9734588 75.5642686,35.6888176 C76.5170539,34.8627235 77.4807106,34.0864294 78.4153606,33.3755588 C79.2087308,32.7686824 79.3934963,31.5891059 78.8211134,30.7434824 C78.252338,29.8944412 77.143794,29.7020765 76.3467674,30.3055353 M62.2688092,81.8192412 C61.1421299,81.9881706 59.9538783,82.1190176 58.7366201,82.1995765 C57.7584844,82.2689059 57.015815,83.1682353 57.0810435,84.2091529 C57.1426157,85.2085706 57.921507,85.9731471 58.8489419,85.9731471 C58.8887712,85.9731471 58.9249931,85.9692412 58.9648225,85.9692412 C60.2690521,85.8769647 61.5514902,85.7427 62.7686997,85.5581471 C63.7396203,85.4121647 64.4134536,84.4552235 64.2757814,83.4216294 C64.1381092,82.3919412 63.2433373,81.6654471 62.2688092,81.8192412 M41.2170516,80.2705588 C40.0903723,79.8404235 39.0651434,79.3370529 38.1703228,78.7799765 C37.3225954,78.2458471 36.2394018,78.5568529 35.7430701,79.4522765 C35.2431308,80.3516059 35.5293467,81.5116529 36.3734177,82.0345529 C37.4602676,82.7107588 38.684741,83.3142176 40.0179286,83.8249118 C40.2171731,83.8981471 40.4164175,83.9328118 40.6192695,83.9328118 C41.3438524,83.9328118 42.0285084,83.4562941 42.2893738,82.6839059 C42.6190266,81.7040176 42.1408302,80.6201353 41.2170516,80.2705588 M51.5708401,82.2264294 C50.3427105,82.1575882 49.1472438,82.0496882 48.0205645,81.8998 C47.0460363,81.7464941 46.1620872,82.5032588 46.0425502,83.5368529 C45.919357,84.5743529 46.6113256,85.5156706 47.5821974,85.6426118 C48.7921918,85.8042176 50.0710223,85.9233471 51.3824671,86 C51.4150814,86 51.4440394,86 51.4766536,86 C52.4149599,86 53.1974587,85.2198 53.2481595,84.2130588 C53.2988604,83.1682353 52.5489758,82.2806235 51.5708401,82.2264294 M33.7795349,72.8581706 C33.7650559,71.8284824 32.9789008,70.9984824 32.0080289,70.9984824 C31.0262857,70.9984824 30.2329155,71.8441059 30.2329155,72.8889294 C30.2329155,73.0656706 30.2546096,74.0265176 30.7255909,75.3716059 C30.9900151,76.1361824 31.6675047,76.6048882 32.3884313,76.6048882 C32.5912833,76.6048882 32.8013992,76.5663176 33.0042999,76.4857588 C33.9244709,76.1244647 34.3917959,75.0410706 34.0512717,74.0611824 C33.8121491,73.3732588 33.7831912,72.9006471 33.7795349,72.8581706 M66.0944293,44.4921882 C66.3769888,44.6689294 66.6885063,44.7533941 66.9928574,44.7533941 C67.6014622,44.7533941 68.1919804,44.4233471 68.5252895,43.8277 C69.0541867,42.8707588 69.7208049,41.8869647 70.5033037,40.8919412 C71.1336513,40.0927 71.0358085,38.9014059 70.285924,38.2325235 C69.5323832,37.5602235 68.4129677,37.6676353 67.7862277,38.4673647 C66.8769281,39.6161824 66.0980368,40.7806235 65.4676892,41.9064941 C64.9713575,42.8053353 65.2503095,43.9580588 66.0944293,44.4921882" id="path-1"></path>
        <path d="M24.0587298,62.2107353 C21.9466996,60.2084824 18.599276,56.8191529 15.2555086,52.5500235 C10.3720453,46.3177 4.54666812,36.9494412 4.54666812,27.7076353 C4.54666812,16.1686824 13.3028448,6.77357059 24.0623861,6.77357059 C34.8219274,6.77357059 43.5744477,16.1686824 43.5744477,27.7076353 C43.5744477,42.2253118 29.576197,56.9651353 24.0587298,62.2107353 M24.0623861,3 C11.3248306,3 1,14.0629235 1,27.7076353 C1,47.7853353 24.0623861,67.1751118 24.0623861,67.1751118 C24.0623861,67.1751118 47.1247234,47.7853353 47.1247234,27.7076353 C47.1247234,14.0629235 36.7999416,3 24.0623861,3 M63.8799283,78.3303118 C63.0466799,78.945 62.0649367,79.5020765 60.9708717,79.9785941 C60.0651796,80.3784588 59.6340765,81.4808941 60.007215,82.4456471 C60.2861669,83.1755588 60.9491288,83.6139941 61.644705,83.6139941 C61.8692998,83.6139941 62.1011585,83.5676118 62.3185383,83.4714294 C63.6517259,82.8875 64.858064,82.1995765 65.9014282,81.4310941 C66.7092774,80.8354471 66.9085219,79.6597765 66.3506179,78.8029235 C65.792714,77.9499765 64.68417,77.7346647 63.8799283,78.3303118 M59.8659352,53.1149118 C59.3587321,52.1467412 59.0508221,51.1439059 58.9457642,50.1293529 C58.8407063,49.0918529 57.9893714,48.3463176 56.9931004,48.4542176 C56.0185723,48.5694412 55.3121247,49.4951353 55.4208389,50.5326353 C55.5729901,52.0583706 56.0294437,53.5455353 56.7721131,54.9594647 C57.0945508,55.5741529 57.699548,55.9242176 58.3190241,55.9242176 C58.6160627,55.9242176 58.9094936,55.8470765 59.1848868,55.6820529 C60.0398292,55.1747765 60.3477392,54.0259588 59.8659352,53.1149118 M67.1114226,61.6150882 C66.3578818,60.5658706 65.4956755,59.5166529 64.5356751,58.4830588 C63.8509703,57.7414294 62.7278986,57.7341059 62.0251073,58.4640176 C61.3295312,59.1939294 61.3222673,60.3891294 62.0105796,61.1346647 C62.8619145,62.0530353 63.6299831,62.9904471 64.2929449,63.9088176 C64.6443406,64.3931471 65.1696302,64.6465412 65.7021838,64.6465412 C66.0789298,64.6465412 66.4556759,64.5235059 66.7781135,64.2583941 C67.5606123,63.6246647 67.7055484,62.4411824 67.1114226,61.6150882 M78.8020063,25.7791059 C78.3527679,24.8529235 77.2840533,24.4877235 76.4146318,24.9681471 C76.4146318,24.9681471 75.8096346,25.2986824 74.7988847,25.9094647 C73.9475498,26.4245529 73.6504625,27.5772765 74.1359228,28.4839294 C74.461968,29.0952 75.0633089,29.4369647 75.6792263,29.4369647 C75.9798723,29.4369647 76.2805672,29.3564059 76.5559116,29.1874765 C77.4688675,28.6377235 78.0231151,28.3301353 78.0375941,28.3228118 C78.9106718,27.8462941 79.251196,26.7087059 78.8020063,25.7791059 M68.5967614,67.8859824 C67.6403199,68.0973882 67.0244512,69.0963176 67.2237444,70.1186824 C67.339625,70.7255588 67.4048536,71.3251118 67.4048536,71.8939059 C67.4048536,72.3587059 67.3613679,72.8235059 67.2816604,73.2692647 C67.0932873,74.2955353 67.7236349,75.2832353 68.6836841,75.4790176 C68.7996135,75.5058706 68.9119353,75.5136824 69.0242083,75.5136824 C69.8574567,75.5136824 70.6001261,74.8872765 70.7631487,73.9840412 C70.8899495,73.3039294 70.9515217,72.6047765 70.9515217,71.8939059 C70.9515217,71.0717176 70.8645503,70.2148647 70.6979201,69.3502 C70.4950681,68.3278353 69.5531543,67.6784824 68.5967614,67.8859824 M68.3467674,30.3055353 C67.3577603,31.0623 66.3361389,31.8883941 65.325389,32.7608706 C64.564633,33.4219412 64.4523112,34.6093294 65.0717874,35.4158941 C65.4232318,35.8772765 65.9339937,36.1116294 66.4484607,36.1116294 C66.8396858,36.1116294 67.2382234,35.9734588 67.5642686,35.6888176 C68.5170539,34.8627235 69.4807106,34.0864294 70.4153606,33.3755588 C71.2087308,32.7686824 71.3934963,31.5891059 70.8211134,30.7434824 C70.252338,29.8944412 69.143794,29.7020765 68.3467674,30.3055353 M54.2688092,81.8192412 C53.1421299,81.9881706 51.9538783,82.1190176 50.7366201,82.1995765 C49.7584844,82.2689059 49.015815,83.1682353 49.0810435,84.2091529 C49.1426157,85.2085706 49.921507,85.9731471 50.8489419,85.9731471 C50.8887712,85.9731471 50.9249931,85.9692412 50.9648225,85.9692412 C52.2690521,85.8769647 53.5514902,85.7427 54.7686997,85.5581471 C55.7396203,85.4121647 56.4134536,84.4552235 56.2757814,83.4216294 C56.1381092,82.3919412 55.2433373,81.6654471 54.2688092,81.8192412 M33.2170516,80.2705588 C32.0903723,79.8404235 31.0651434,79.3370529 30.1703228,78.7799765 C29.3225954,78.2458471 28.2394018,78.5568529 27.7430701,79.4522765 C27.2431308,80.3516059 27.5293467,81.5116529 28.3734177,82.0345529 C29.4602676,82.7107588 30.684741,83.3142176 32.0179286,83.8249118 C32.2171731,83.8981471 32.4164175,83.9328118 32.6192695,83.9328118 C33.3438524,83.9328118 34.0285084,83.4562941 34.2893738,82.6839059 C34.6190266,81.7040176 34.1408302,80.6201353 33.2170516,80.2705588 M43.5708401,82.2264294 C42.3427105,82.1575882 41.1472438,82.0496882 40.0205645,81.8998 C39.0460363,81.7464941 38.1620872,82.5032588 38.0425502,83.5368529 C37.919357,84.5743529 38.6113256,85.5156706 39.5821974,85.6426118 C40.7921918,85.8042176 42.0710223,85.9233471 43.3824671,86 C43.4150814,86 43.4440394,86 43.4766536,86 C44.4149599,86 45.1974587,85.2198 45.2481595,84.2130588 C45.2988604,83.1682353 44.5489758,82.2806235 43.5708401,82.2264294 M25.7795349,72.8581706 C25.7650559,71.8284824 24.9789008,70.9984824 24.0080289,70.9984824 C23.0262857,70.9984824 22.2329155,71.8441059 22.2329155,72.8889294 C22.2329155,73.0656706 22.2546096,74.0265176 22.7255909,75.3716059 C22.9900151,76.1361824 23.6675047,76.6048882 24.3884313,76.6048882 C24.5912833,76.6048882 24.8013992,76.5663176 25.0042999,76.4857588 C25.9244709,76.1244647 26.3917959,75.0410706 26.0512717,74.0611824 C25.8121491,73.3732588 25.7831912,72.9006471 25.7795349,72.8581706 M58.0944293,44.4921882 C58.3769888,44.6689294 58.6885063,44.7533941 58.9928574,44.7533941 C59.6014622,44.7533941 60.1919804,44.4233471 60.5252895,43.8277 C61.0541867,42.8707588 61.7208049,41.8869647 62.5033037,40.8919412 C63.1336513,40.0927 63.0358085,38.9014059 62.285924,38.2325235 C61.5323832,37.5602235 60.4129677,37.6676353 59.7862277,38.4673647 C58.8769281,39.6161824 58.0980368,40.7806235 57.4676892,41.9064941 C56.9713575,42.8053353 57.2503095,43.9580588 58.0944293,44.4921882" id="path-3"></path>
    </defs>
    <g id="Icons/Location3" stroke="none" stroke-width="1" fill="none" fill-rule="evenodd">
        <mask id="mask-2" fill="white">
            <use xlink:href="#path-1"></use>
        </mask>
        <use id="Mask-Copy" fill="#8F2B8B" opacity="0.4" xlink:href="#path-1"></use>
        <mask id="mask-4" fill="white">
            <use xlink:href="#path-3"></use>
        </mask>
        <use id="Mask" fill="#00338D" xlink:href="#path-3"></use>
    </g>
</svg>