<?xml version="1.0" encoding="UTF-8"?>
<svg width="88px" height="88px" viewBox="0 0 88 88" version="1.1" xmlns="http://www.w3.org/2000/svg" xmlns:xlink="http://www.w3.org/1999/xlink">
    <!-- Generator: Sketch 52.6 (67491) - http://www.bohemiancoding.com/sketch -->
    <title>Icons/PC3</title>
    <desc>Created with Sketch.</desc>
    <defs>
        <path d="M81.180625,55.7257812 L13,55.7257812 L13,11.4096875 C13,9.52765625 14.5276563,8 16.4096875,8 L77.7709375,8 C79.6529688,8 81.180625,9.52765625 81.180625,11.4096875 C81.180625,11.4096875 81.180625,55.7257812 81.180625,55.7257812 Z M81.180625,62.5451563 C81.180625,64.4271875 79.6529688,65.9548437 77.7709375,65.9548437 L16.4096875,65.9548437 C14.5276563,65.9548437 13,64.4271875 13,62.5451563 L13,59.1354688 L81.180625,59.1354688 C81.180625,59.1354688 81.180625,62.5451563 81.180625,62.5451563 Z M50.5,76.180625 L43.680625,76.180625 L43.680625,69.3645313 L50.5,69.3645313 C50.5,69.3645313 50.5,76.180625 50.5,76.180625 Z" id="path-1"></path>
        <path d="M76.5903125,58.1354687 L8.4096875,58.1354687 L8.4096875,13.819375 C8.4096875,11.9373437 9.93734375,10.4096875 11.819375,10.4096875 L73.180625,10.4096875 C75.0626562,10.4096875 76.5903125,11.9373437 76.5903125,13.819375 C76.5903125,13.819375 76.5903125,58.1354687 76.5903125,58.1354687 Z M76.5903125,64.9548437 C76.5903125,66.836875 75.0626562,68.3645312 73.180625,68.3645312 L11.819375,68.3645312 C9.93734375,68.3645312 8.4096875,66.836875 8.4096875,64.9548437 L8.4096875,61.5451563 L76.5903125,61.5451563 C76.5903125,61.5451563 76.5903125,64.9548437 76.5903125,64.9548437 Z M45.9096875,78.5903125 L39.0903125,78.5903125 L39.0903125,71.7742187 L45.9096875,71.7742187 C45.9096875,71.7742187 45.9096875,78.5903125 45.9096875,78.5903125 Z M73.180625,7 L11.819375,7 C8.05203125,7 5,10.0520312 5,13.819375 L5,64.9548437 C5,68.7189062 8.05203125,71.7742187 11.819375,71.7742187 L35.680625,71.7742187 L35.680625,78.5903125 L30.569375,78.5903125 C29.6248438,78.5903125 28.8645313,79.354375 28.8645313,80.2951562 C28.8645313,81.2396875 29.6248438,82 30.569375,82 L54.430625,82 C55.3751563,82 56.1354688,81.2396875 56.1354688,80.2951562 C56.1354688,79.354375 55.3751563,78.5903125 54.430625,78.5903125 L49.319375,78.5903125 L49.319375,71.7742187 L73.180625,71.7742187 C76.9479688,71.7742187 80,68.7189062 80,64.9548437 L80,13.819375 C80,10.0520312 76.9479688,7 73.180625,7 Z" id="path-3"></path>
    </defs>
    <g id="Icons/PC3" stroke="none" stroke-width="1" fill="none" fill-rule="evenodd">
        <mask id="mask-2" fill="white">
            <use xlink:href="#path-1"></use>
        </mask>
        <use id="Mask" fill="#E0C614" opacity="0.4" xlink:href="#path-1"></use>
        <mask id="mask-4" fill="white">
            <use xlink:href="#path-3"></use>
        </mask>
        <use id="Mask-Copy" fill="#00338D" xlink:href="#path-3"></use>
    </g>
</svg>