<?xml version="1.0" encoding="UTF-8"?>
<svg width="88px" height="88px" viewBox="0 0 88 88" version="1.1" xmlns="http://www.w3.org/2000/svg" xmlns:xlink="http://www.w3.org/1999/xlink">
    <!-- Generator: Sketch 52.6 (67491) - http://www.bohemiancoding.com/sketch -->
    <title>Icons/search3</title>
    <desc>Created with Sketch.</desc>
    <g id="Icons/search3" stroke="none" stroke-width="1" fill="none" fill-rule="evenodd">
        <path d="M88.4868176,76.0126718 L69.9388765,57.4649571 C75.2432706,51.5758612 78.5017294,43.8010353 78.5017294,35.2490076 C78.5017294,16.8866818 63.6149118,2 45.2490529,2 C26.8868176,2 12,16.8866818 12,35.2490076 C12,53.6149571 26.8868176,68.5016388 45.2490529,68.5016388 C53.8010353,68.5016388 61.5757706,65.2469394 67.4649118,59.9389218 L86.0128529,78.4866818 C86.3299118,78.8075 86.7647353,79 87.2498353,79 C88.2159588,79 89,78.2193106 89,77.2496541 C89,76.7684041 88.8038765,76.3299571 88.4868176,76.0126718" id="Fill-49-Copy-2" fill="#7AA52B" opacity="0.4"></path>
        <path d="M39.4982035,69 C23.2058783,69 10,55.7902994 10,39.4982035 C10,23.2061525 23.2058783,10 39.4982035,10 C55.7905286,10 69,23.2061525 69,39.4982035 C69,55.7902994 55.7905286,69 39.4982035,69 M82.4868176,80.0126718 L63.9388765,61.4649571 C69.2432706,55.5758612 72.5017294,47.8010353 72.5017294,39.2490076 C72.5017294,20.8866818 57.6149118,6 39.2490529,6 C20.8868176,6 6,20.8866818 6,39.2490076 C6,57.6149571 20.8868176,72.5016388 39.2490529,72.5016388 C47.8010353,72.5016388 55.5757706,69.2469394 61.4649118,63.9389218 L80.0128529,82.4866818 C80.3299118,82.8075 80.7647353,83 81.2498353,83 C82.2159588,83 83,82.2193106 83,81.2496541 C83,80.7684041 82.8038765,80.3299571 82.4868176,80.0126718" id="Fill-49-Copy" fill="#00338D"></path>
    </g>
</svg>